# AST/ASF file generated using VICON BodyLanguage
# -----------------------------------------------
:version 1.10
:name VICON
:units
  mass 1.0
  length 0.45
  angle deg
:documentation
   .ast/.asf automatically generated from VICON data using
   VICON BodyBuilder and BodyLanguage model FoxedUp or BRILLIANT.MOD
:root
   order TX TY TZ RX RY RZ
   axis XYZ
   position 0 0 0  
   orientation 0 0 0 
:bonedata
  begin
     id 1 
     name lhipjoint
     direction 0.650112 -0.723553 0.232005 
     length 2.45805 
     axis 0 0 0  XYZ
  end
  begin
     id 2 
     name lfemur
     direction 0.34202 -0.939693 0  
     length 7.00073  
     axis 0 0 20  XYZ
    dof rx ry rz
    limits (-160.0 20.0)
           (-70.0 70.0)
           (-60.0 70.0)
  end
  begin
     id 3 
     name ltibia
     direction 0.34202 -0.939693 0   
     length 7.8748   
     axis 0 0 20   XYZ
    dof rx
    limits (-10.0 170.0)
  end
  begin
     id 4 
     name lfoot
     direction 0.0542825 -0.14914 0.987325   
     length 1.75978   
     axis -90 7.62852e-016 20   XYZ
    dof rx rz
    limits (-45.0 90.0)
           (-70.0 20.0)
  end
  begin
     id 5 
     name ltoes
     direction 1.53509e-011 -4.21906e-011 1   
     length 0.893912   
     axis -90 7.62852e-016 20   XYZ
    dof rx
    limits (-90.0 20.0)
  end
  begin
     id 6 
     name rhipjoint
     direction -0.637897 -0.733345 0.235145   
     length 2.42522  
     axis 0 0 0  XYZ 
  end
  begin
     id 7 
     name rfemur
     direction -0.34202 -0.939693 0   
     length 7.02549   
     axis 0 0 -20   XYZ
    dof rx ry rz
    limits (-160.0 20.0)
           (-70.0 70.0)
           (-70.0 60.0)
  end
  begin
     id 8 
     name rtibia
     direction -0.34202 -0.939693 0   
     length 7.71512   
     axis 0 0 -20   XYZ
    dof rx
    limits (-10.0 170.0)
 end
 begin
     id 9 
     name rfoot
     direction -0.0822618 -0.226012 0.970645   
     length 1.90014  
     axis -90 -7.62852e-016 -20   XYZ
    dof rx rz
    limits (-45.0 90.0)
           (-20.0 70.0)
  end
  begin
     id 10 
     name rtoes
     direction -1.53542e-011 -4.21872e-011 1   
     length 0.957341   
     axis -90 -7.62852e-016 -20   XYZ
    dof rx
    limits (-90.0 20.0)
  end
  begin
     id 11 
     name lowerback
     direction -0.0022947 0.999774 -0.0211557   
     length 1.89909   
     axis 0 0 0   XYZ
    dof rx ry rz
    limits (-20.0 45.0)
           (-30.0 30.0)
           (-30.0 30.0)
  end
  begin
     id 12 
     name upperback
     direction 0.0107737 0.998635 0.0511027   
     length 1.8853   
     axis 0 0 0   XYZ
    dof rx ry rz
    limits (-20.0 45.0)
           (-30.0 30.0)
           (-30.0 30.0)
  end
  begin
     id 13 
     name thorax
     direction 0.011824 0.998136 0.0598754   
     length 1.88911   
     axis 0 0 0   XYZ
    dof rx ry rz
    limits (-20.0 45.0)
           (-30.0 30.0)
           (-30.0 30.0)
  end
  begin
     id 14 
     name lowerneck
     direction -0.0685355 0.990319 0.120714   
     length 1.91222   
     axis 0 0 0   XYZ
    dof rx ry rz
    limits (-20.0 45.0)
           (-30.0 30.0)
           (-30.0 30.0)
  end
  begin
     id 15 
     name upperneck
     direction 0.0886204 0.955665 -0.280805   
     length 1.92526   
     axis 0 0 0   XYZ
    dof rx ry rz
    limits (-20.0 45.0)
           (-30.0 30.0)
           (-30.0 30.0)
  end
  begin
     id 16
     name head
     direction 0.0233423 0.993502 -0.111393  
     length 1.96056  
     axis 0 0 0   XYZ
    dof rx ry rz
    limits (-20.0 45.0)
           (-30.0 30.0)
           (-30.0 30.0)
  end
  begin
     id 17 
     name lclavicle
     direction 0.941873 0.32922 0.0670041  
     length 3.31705  
     axis 0 0 0   XYZ
    dof ry rz
    limits (-20.0 10.0)
           (0.0 20.0)
  end
  begin
     id 18 
     name lhumerus
     direction 1 -4.4898e-011 3.38707e-028   
     length 5.29277   
     axis 180 -30 -90   XYZ
    dof rx ry rz
    limits (-60.0 90.0)
           (-90.0 90.0)
           (-90.0 90.0)
  end
  begin
     id 19
     name lradius
     direction 1 -4.48952e-011 1.63213e-028   
     length 2.85226   
     axis 180 -30 -90   XYZ
    dof rx
    limits (-10.0 170.0)
  end
  begin
     id 20
     name lwrist
     direction 1 -4.49001e-011 1.27856e-027   
     length 1.42613   
     axis -1.61767e-015 90 90   XYZ
    dof ry
    limits (-180.0 0.0)
 end
  begin
     id 21 
     name lhand
     direction 1 -4.48976e-011 2.55931e-027   
     length 0.602097   
     axis -1.63363e-015 90 90   XYZ
    dof rx rz
    limits (-90.0 90.0)
           (-45.0 45.0)
  end
  begin
     id 22 
     name lfingers
     direction 1 -4.48986e-011 5.11684e-027   
     length 0.485426   
     axis -3.26723e-015 90 90   XYZ
    dof rx
    limits (0.0 90.0)
  end
  begin
     id 23
     name lthumb
     direction 0.707107 -6.34915e-011 0.707107   
     length 0.696978   
     axis -90 45 -2.25915e-014   XYZ
    dof rx rz
    limits (-45.0 45.0)
           (-45.0 45.0)
  end
  begin
     id 24 
     name rclavicle
     direction -0.939974 0.327078 0.0973096   
     length 3.10337  
     axis 0 0 0   XYZ 
    dof ry rz
    limits (-10.0 20.0)
           (-20.0 0.0)
  end
  begin
     id 25 
     name rhumerus
     direction -1 -4.48975e-011 1.83745e-027  
     length 5.13304   
     axis 180 30 90   XYZ
    dof rx ry rz
    limits (-90.0 60.0)
           (-90.0 90.0)
           (-90.0 90.0)
  end
  begin
     id 26 
     name rradius
     direction -1 -4.48977e-011 7.1775e-029   
     length 2.74305   
     axis 180 30 90   XYZ
    dof rx
    limits (-10.0 170.0)
  end
  begin
     id 27 
     name rwrist
     direction -1 -4.48977e-011 1.27963e-027   
     length 1.37152   
     axis -1.61767e-015 -90 -90   XYZ
    dof ry
    limits (-180.0 0.0)
  end
  begin
     id 28
     name rhand
     direction -1 -4.4888e-011 2.56782e-027   
     length 0.767976   
     axis -1.63363e-015 -90 -90   XYZ
    dof rx rz
    limits (-90.0 90.0)
           (-45.0 45.0)
  end
  begin
     id 29
     name rfingers
     direction -1 -4.48947e-011 5.12384e-027   
     length 0.619162   
     axis -3.26723e-015 -90 -90   XYZ
    dof rx
    limits (0.0 90.0)
  end
  begin
     id 30
     name rthumb
     direction -0.707107 -6.34857e-011 0.707107   
     length 0.888997   
     axis -90 -45 2.25915e-014   XYZ
    dof rx rz
    limits (-45.0 45.0)
           (-45.0 45.0)
  end
:hierarchy
  begin
    root lhipjoint rhipjoint lowerback
    lhipjoint lfemur
    lfemur ltibia
    ltibia lfoot
    lfoot ltoes
    rhipjoint rfemur
    rfemur rtibia
    rtibia rfoot
    rfoot rtoes
    lowerback upperback
    upperback thorax
    thorax lowerneck lclavicle rclavicle
    lowerneck upperneck
    upperneck head
    lclavicle lhumerus
    lhumerus lradius
    lradius lwrist
    lwrist lhand lthumb
    lhand lfingers
    rclavicle rhumerus
    rhumerus rradius
    rradius rwrist
    rwrist rhand rthumb
    rhand rfingers
  end

#!OML:ASF F:\VICON\USERDATA\INSTALL\rory3\rory3.ASF
:FULLY-SPECIFIED
:DEGREES
446
root -0.127926 17.0593 -1.22599 -1.34526 5.46012 -6.42474
lowerback 4.48515 -0.0182056 -7.49235
upperback 8.93799 -0.0562637 0.894495
thorax 6.92593 -0.563189 5.14056
lowerneck 24.167 -18.2747 -28.7802
upperneck 23.176 -34.9684 22.0023
head 13.9874 -19.0647 8.85119
rclavicle 9.14409e-015 2.22639e-014
rhumerus 57.118 34.4569 -62.4999
rradius 22.7856
rwrist 31.5428
rhand 46.5618 20.4532
rfingers 7.12502
rthumb 67.5562 18.2054
lclavicle 9.14409e-015 2.22639e-014
lhumerus -24.7505 27.1937 76.0339
lradius 23.1629
lwrist -14.3465
lhand -9.63064 21.129
lfingers 7.12502
lthumb 16.3393 50.4607
rfemur -7.28089 2.52569 26.0408
rtibia 23.2663
rfoot -15.4392 -8.96354
rtoes -25.8262
lfemur -15.0075 -14.3343 -9.65789
ltibia 34.4824
lfoot -18.6103 4.41917
ltoes -25.271
447
root -0.128802 17.0592 -1.21021 -1.52829 5.35984 -6.33373
lowerback 4.21941 -0.0713808 -7.50909
upperback 8.89397 -0.102159 0.787357
thorax 7.03607 -0.58585 5.03479
lowerneck 24.0481 -18.2862 -28.6866
upperneck 22.8758 -34.9696 22.2051
head 13.8989 -19.0508 8.90275
rclavicle -1.74931e-014 4.77083e-015
rhumerus 57.3138 33.895 -63.0146
rradius 22.9496
rwrist 31.9171
rhand 46.68 20.5087
rfingers 7.12502
rthumb 67.6429 18.456
lclavicle -1.74931e-014 4.77083e-015
lhumerus -24.8997 27.641 75.682
lradius 22.9481
lwrist -14.6649
lhand -9.6897 20.9709
lfingers 7.12502
lthumb 16.2824 50.3072
rfemur -6.97837 2.57972 25.9721
rtibia 23.1808
rfoot -15.443 -8.99691
rtoes -26.4141
lfemur -14.6904 -14.3019 -9.82683
ltibia 34.4962
lfoot -18.8053 4.42586
ltoes -24.9854
448
root -0.127761 17.0567 -1.19318 -1.73701 5.2552 -6.28326
lowerback 4.0155 -0.131304 -7.45075
upperback 8.79877 -0.162323 0.641937
thorax 7.05349 -0.603765 4.84542
lowerneck 23.8558 -18.3374 -28.4793
upperneck 22.7289 -34.9922 22.2875
head 13.8415 -19.0339 8.88501
rclavicle -3.53837e-014 -3.49861e-014
rhumerus 57.358 33.3111 -63.6643
rradius 23.1749
rwrist 32.3962
rhand 46.8078 20.8494
rfingers 7.12502
rthumb 67.7363 19.0092
lclavicle -3.53837e-014 -3.49861e-014
lhumerus -25.1118 27.9126 75.2666
lradius 22.6804
lwrist -14.7386
lhand -9.9578 21.1368
lfingers 7.12502
lthumb 16.0243 50.4941
rfemur -6.6413 2.62172 25.9368
rtibia 23.1323
rfoot -15.5496 -8.96326
rtoes -26.3167
lfemur -14.3131 -14.282 -9.96101
ltibia 34.4731
lfoot -18.9947 4.38511
ltoes -24.2597
449
root -0.124787 17.0551 -1.1756 -1.91844 5.12735 -6.3147
lowerback 3.81547 -0.144961 -7.3864
upperback 8.66989 -0.168086 0.601806
thorax 7.02501 -0.596069 4.76611
lowerneck 23.7814 -18.4433 -28.289
upperneck 22.4563 -35.1039 22.4207
head 13.7571 -19.0656 8.87206
rclavicle 7.95139e-015 -2.8625e-014
rhumerus 57.5763 32.7912 -63.7587
rradius 23.4946
rwrist 32.6694
rhand 47.0437 21.1274
rfingers 7.12502
rthumb 67.9078 19.6845
lclavicle 7.95139e-015 -2.8625e-014
lhumerus -25.3727 28.2842 74.9809
lradius 22.4608
lwrist -14.9904
lhand -10.1473 21.6921
lfingers 7.12502
lthumb 15.8418 51.064
rfemur -6.32627 2.68304 25.9854
rtibia 23.0498
rfoot -15.5673 -8.97497
rtoes -26.3261
lfemur -13.9784 -14.2743 -10.0095
ltibia 34.4595
lfoot -19.0778 4.40542
ltoes -24.1197
450
root -0.121221 17.0517 -1.15891 -2.12635 4.95478 -6.38769
lowerback 3.63338 -0.107704 -7.37289
upperback 8.55423 -0.113422 0.69074
thorax 6.99556 -0.567538 4.85437
lowerneck 23.724 -18.5546 -28.2856
upperneck 22.1465 -35.2654 22.5848
head 13.7214 -19.1305 8.87
rclavicle 1.55052e-014 1.90833e-014
rhumerus 58.281 32.509 -63.0033
rradius 23.7707
rwrist 32.1939
rhand 47.2028 21.0196
rfingers 7.12502
rthumb 68.0228 19.8482
lclavicle 1.55052e-014 1.90833e-014
lhumerus -25.5634 28.6086 74.9367
lradius 22.2193
lwrist -15.3467
lhand -10.3741 22.0649
lfingers 7.12502
lthumb 15.6234 51.454
rfemur -5.98066 2.76701 26.0701
rtibia 22.9597
rfoot -15.5895 -8.89067
rtoes -25.7002
lfemur -13.6258 -14.257 -10.0206
ltibia 34.4547
lfoot -19.1379 4.45343
ltoes -23.9313
451
root -0.118986 17.0475 -1.13966 -2.40139 4.82057 -6.41457
lowerback 3.50793 -0.10355 -7.38978
upperback 8.42992 -0.10563 0.740768
thorax 6.93127 -0.561046 4.91725
lowerneck 23.7451 -18.5866 -28.3337
upperneck 21.8108 -35.3392 22.7603
head 13.6471 -19.1684 8.91395
rclavicle 7.95139e-015 1.43125e-014
rhumerus 59.117 32.5127 -61.8029
rradius 24.1571
rwrist 30.9771
rhand 47.2573 20.113
rfingers 7.12502
rthumb 68.0621 19.0353
lclavicle 7.95139e-015 1.43125e-014
lhumerus -25.9083 29.0186 74.7046
lradius 22.0054
lwrist -15.7071
lhand -10.5207 22.0792
lfingers 7.12502
lthumb 15.4822 51.4793
rfemur -5.55596 2.86443 26.1193
rtibia 22.8843
rfoot -15.601 -8.90051
rtoes -25.4791
lfemur -13.1858 -14.2347 -10.0942
ltibia 34.431
lfoot -19.235 4.56626
ltoes -24.1617
452
root -0.11892 17.044 -1.1193 -2.6641 4.73569 -6.32125
lowerback 3.36646 -0.125238 -7.47518
upperback 8.33323 -0.124061 0.694316
thorax 6.9113 -0.5705 4.91533
lowerneck 23.6914 -18.6165 -28.2843
upperneck 21.4539 -35.3906 23.0077
head 13.5664 -19.1861 8.97599
rclavicle -2.78299e-015 -9.54166e-015
rhumerus 59.6463 32.2827 -61.1931
rradius 24.5146
rwrist 30.2438
rhand 47.1715 19.7159
rfingers 7.12502
rthumb 68.0002 18.4908
lclavicle -2.78299e-015 -9.54166e-015
lhumerus -26.2471 29.4319 74.3444
lradius 21.8301
lwrist -16.0534
lhand -10.597 22.0869
lfingers 7.12502
lthumb 15.4087 51.4927
rfemur -5.12793 2.92479 26.0549
rtibia 22.8039
rfoot -15.6921 -8.92327
rtoes -25.7105
lfemur -12.7392 -14.2016 -10.2954
ltibia 34.398
lfoot -19.2923 4.59399
ltoes -24.0698
